<svg width="16" height="16" viewBox="0 0 16 16" fill="none" xmlns="http://www.w3.org/2000/svg">
<path d="M0.999268 1.5991C0.999268 1.43995 1.06249 1.28732 1.17503 1.17478C1.28756 1.06225 1.4402 0.999023 1.59935 0.999023H2.0458C2.8059 0.999023 3.26196 1.51029 3.522 1.98555C3.69562 2.30239 3.82124 2.66964 3.91965 3.00249C3.94627 3.00038 3.97296 2.99932 3.99966 2.99929H13.9994C14.6635 2.99929 15.1435 3.63457 14.9611 4.27385L13.4985 9.40172C13.3674 9.86167 13.0899 10.2664 12.7082 10.5545C12.3265 10.8427 11.8613 10.9986 11.383 10.9987H6.624C6.14193 10.9988 5.6732 10.8405 5.28985 10.5482C4.9065 10.2559 4.62974 9.84579 4.50213 9.38092L3.89405 7.16303L2.88591 3.76419L2.88511 3.75778C2.7603 3.30413 2.64348 2.87927 2.46906 2.56243C2.30184 2.25439 2.16742 2.19918 2.0466 2.19918H1.59935C1.4402 2.19918 1.28756 2.13596 1.17503 2.02342C1.06249 1.91089 0.999268 1.75825 0.999268 1.5991ZM5.0582 6.87179L5.65908 9.06328C5.77909 9.49694 6.17354 9.79857 6.624 9.79857H11.383C11.6004 9.79857 11.8119 9.72773 11.9854 9.59679C12.159 9.46585 12.2851 9.28193 12.3448 9.07288L13.7345 4.19944H4.26769L5.047 6.82939L5.0582 6.87179Z" fill="white"/>
<path d="M7.80052 13.4006C7.80052 13.825 7.63192 14.232 7.33183 14.5321C7.03173 14.8322 6.62471 15.0008 6.20031 15.0008C5.77591 15.0008 5.36889 14.8322 5.06879 14.5321C4.76869 14.232 4.6001 13.825 4.6001 13.4006C4.6001 12.9762 4.76869 12.5692 5.06879 12.2691C5.36889 11.969 5.77591 11.8004 6.20031 11.8004C6.62471 11.8004 7.03173 11.969 7.33183 12.2691C7.63192 12.5692 7.80052 12.9762 7.80052 13.4006ZM6.60036 13.4006C6.60036 13.2945 6.55821 13.1928 6.48319 13.1177C6.40816 13.0427 6.30641 13.0006 6.20031 13.0006C6.09421 13.0006 5.99245 13.0427 5.91743 13.1177C5.8424 13.1928 5.80025 13.2945 5.80025 13.4006C5.80025 13.5067 5.8424 13.6085 5.91743 13.6835C5.99245 13.7585 6.09421 13.8007 6.20031 13.8007C6.30641 13.8007 6.40816 13.7585 6.48319 13.6835C6.55821 13.6085 6.60036 13.5067 6.60036 13.4006Z" fill="white"/>
<path d="M13.4009 13.4006C13.4009 13.825 13.2323 14.232 12.9322 14.5321C12.6321 14.8322 12.2251 15.0008 11.8006 15.0008C11.3762 15.0008 10.9692 14.8322 10.6691 14.5321C10.369 14.232 10.2004 13.825 10.2004 13.4006C10.2004 12.9762 10.369 12.5692 10.6691 12.2691C10.9692 11.969 11.3762 11.8004 11.8006 11.8004C12.2251 11.8004 12.6321 11.969 12.9322 12.2691C13.2323 12.5692 13.4009 12.9762 13.4009 13.4006ZM12.2007 13.4006C12.2007 13.2945 12.1586 13.1928 12.0835 13.1177C12.0085 13.0427 11.9067 13.0006 11.8006 13.0006C11.6945 13.0006 11.5928 13.0427 11.5178 13.1177C11.4427 13.1928 11.4006 13.2945 11.4006 13.4006C11.4006 13.5067 11.4427 13.6085 11.5178 13.6835C11.5928 13.7585 11.6945 13.8007 11.8006 13.8007C11.9067 13.8007 12.0085 13.7585 12.0835 13.6835C12.1586 13.6085 12.2007 13.5067 12.2007 13.4006Z" fill="white"/>
</svg>
